<svg viewBox="0 0 720 508" xmlns="http://www.w3.org/2000/svg" role="img" width="100%" font-family="Sora, 'Pretendard Variable', system-ui, sans-serif">
<title>Disclosed eGovFrame findings by component</title><desc>990 findings per component.</desc>
<rect x="0" y="0" width="720" height="508" fill="#0A0A0A"/>
<text x="12" y="24" fill="#E8E8E8" font-size="16" font-weight="500">제보 취약점 — 컴포넌트별</text>
<text x="12" y="44" fill="#8A8A8A" font-size="12">저장소·모듈/마이크로서비스 단위 (제보 990건)</text>
<rect x="12" y="60" width="10" height="10" rx="2" fill="#54DB98"/><text x="28" y="69" fill="#E8E8E8" font-size="12" font-weight="500">common-components — 860건 (모놀리식, 모듈별)</text>
<g font-size="12">
<text x="167" y="87" fill="#E8E8E8" text-anchor="end">uss · 사용자지원</text><rect x="175" y="74" width="480" height="16" rx="2" fill="#54DB98"/><text x="661" y="87" fill="#C8C8C8" font-size="11" font-weight="500">379</text>
<text x="167" y="113" fill="#E8E8E8" text-anchor="end">sym · 시스템관리</text><rect x="175" y="100" width="148" height="16" rx="2" fill="#54DB98"/><text x="329" y="113" fill="#C8C8C8" font-size="11" font-weight="500">117</text>
<text x="167" y="139" fill="#E8E8E8" text-anchor="end">cop · 협업/게시판</text><rect x="175" y="126" width="139" height="16" rx="2" fill="#54DB98"/><text x="320" y="139" fill="#C8C8C8" font-size="11" font-weight="500">110</text>
<text x="167" y="165" fill="#E8E8E8" text-anchor="end">utl · 유틸리티</text><rect x="175" y="152" width="100" height="16" rx="2" fill="#54DB98"/><text x="281" y="165" fill="#C8C8C8" font-size="11" font-weight="500">79</text>
<text x="167" y="191" fill="#E8E8E8" text-anchor="end">dam · 지식관리</text><rect x="175" y="178" width="71" height="16" rx="2" fill="#54DB98"/><text x="252" y="191" fill="#C8C8C8" font-size="11" font-weight="500">56</text>
<text x="167" y="217" fill="#E8E8E8" text-anchor="end">ext · 확장</text><rect x="175" y="204" width="41" height="16" rx="2" fill="#54DB98"/><text x="222" y="217" fill="#C8C8C8" font-size="11" font-weight="500">32</text>
<text x="167" y="243" fill="#E8E8E8" text-anchor="end">ssi · 보안입력</text><rect x="175" y="230" width="37" height="16" rx="2" fill="#54DB98"/><text x="218" y="243" fill="#C8C8C8" font-size="11" font-weight="500">29</text>
<text x="167" y="269" fill="#E8E8E8" text-anchor="end">cmm · 공통</text><rect x="175" y="256" width="24" height="16" rx="2" fill="#54DB98"/><text x="205" y="269" fill="#C8C8C8" font-size="11" font-weight="500">19</text>
</g>
<rect x="12" y="288" width="10" height="10" rx="2" fill="#E8B84B"/><text x="28" y="297" fill="#E8E8E8" font-size="12" font-weight="500">msa-common-components — 130건 (마이크로서비스별)</text>
<g font-size="12">
<text x="167" y="315" fill="#E8E8E8" text-anchor="end">Questionnaire · 설문</text><rect x="175" y="302" width="49" height="16" rx="2" fill="#E8B84B"/><text x="230" y="315" fill="#C8C8C8" font-size="11" font-weight="500">39</text>
<text x="167" y="341" fill="#E8E8E8" text-anchor="end">Board · 게시판</text><rect x="175" y="328" width="37" height="16" rx="2" fill="#E8B84B"/><text x="218" y="341" fill="#C8C8C8" font-size="11" font-weight="500">29</text>
<text x="167" y="367" fill="#E8E8E8" text-anchor="end">Author · 인가</text><rect x="175" y="354" width="23" height="16" rx="2" fill="#E8B84B"/><text x="204" y="367" fill="#C8C8C8" font-size="11" font-weight="500">18</text>
<text x="167" y="393" fill="#E8E8E8" text-anchor="end">MobileId · 모바일신분증</text><rect x="175" y="380" width="16" height="16" rx="2" fill="#E8B84B"/><text x="197" y="393" fill="#C8C8C8" font-size="11" font-weight="500">13</text>
<text x="167" y="419" fill="#E8E8E8" text-anchor="end">Search · 검색</text><rect x="175" y="406" width="11" height="16" rx="2" fill="#E8B84B"/><text x="192" y="419" fill="#C8C8C8" font-size="11" font-weight="500">9</text>
<text x="167" y="445" fill="#E8E8E8" text-anchor="end">CmmnCode · 공통코드</text><rect x="175" y="432" width="11" height="16" rx="2" fill="#E8B84B"/><text x="192" y="445" fill="#C8C8C8" font-size="11" font-weight="500">9</text>
<text x="167" y="471" fill="#E8E8E8" text-anchor="end">LoginPolicy · 로그인정책</text><rect x="175" y="458" width="8" height="16" rx="2" fill="#E8B84B"/><text x="189" y="471" fill="#C8C8C8" font-size="11" font-weight="500">6</text>
<text x="167" y="497" fill="#E8E8E8" text-anchor="end">Login · 로그인</text><rect x="175" y="484" width="6" height="16" rx="2" fill="#E8B84B"/><text x="187" y="497" fill="#C8C8C8" font-size="11" font-weight="500">5</text>
</g></svg>