<svg viewBox="0 0 760 404" xmlns="http://www.w3.org/2000/svg" role="img" width="100%" font-family="Sora, 'Pretendard Variable', system-ui, sans-serif">
<title>eGovFrame vulnerability classes by severity (disclosure 990)</title><desc>990 disclosed findings.</desc>
<rect x="0" y="0" width="760" height="404" fill="#0A0A0A"/>
<text x="12" y="24" fill="#E8E8E8" font-size="16" font-weight="500">eGovFrame — 취약점 유형별 심각도</text>
<text x="12" y="44" fill="#8A8A8A" font-size="12">제보 990건 (1차 30 + 2차 960) · Critical 4 / High 90</text>
<line x1="185" y1="62" x2="185" y2="362" stroke="#2E2E2E" stroke-width="1"/>
<g font-size="13">
<text x="176" y="88" fill="#E8E8E8" text-anchor="end">CSRF</text>
<rect x="185" y="70" width="2" height="26" fill="#F0503C"/>
<rect x="187" y="70" width="43" height="26" fill="#F5893B"/>
<rect x="230" y="70" width="177" height="26" fill="#E8B84B"/>
<rect x="407" y="70" width="259" height="26" fill="#54DB98"/>
<text x="672" y="88" fill="#E8E8E8" font-size="12" font-weight="500">512 (47 H/C)</text>
<text x="176" y="130" fill="#E8E8E8" text-anchor="end">Authorization / IDOR</text>
<rect x="185" y="112" width="24" height="26" fill="#F5893B"/>
<rect x="209" y="112" width="129" height="26" fill="#E8B84B"/>
<rect x="338" y="112" width="47" height="26" fill="#54DB98"/>
<rect x="385" y="112" width="4" height="26" fill="#565656"/>
<text x="395" y="130" fill="#E8E8E8" font-size="12" font-weight="500">218 (26 H/C)</text>
<text x="176" y="172" fill="#E8E8E8" text-anchor="end">XSS</text>
<rect x="185" y="154" width="2" height="26" fill="#F0503C"/>
<rect x="187" y="154" width="7" height="26" fill="#F5893B"/>
<rect x="194" y="154" width="38" height="26" fill="#E8B84B"/>
<rect x="232" y="154" width="31" height="26" fill="#54DB98"/>
<rect x="263" y="154" width="99" height="26" fill="#565656"/>
<text x="368" y="172" fill="#E8E8E8" font-size="12" font-weight="500">188 (8 H/C)</text>
<text x="176" y="214" fill="#E8E8E8" text-anchor="end">Other</text>
<rect x="185" y="196" width="2" height="26" fill="#F0503C"/>
<rect x="187" y="196" width="7" height="26" fill="#F5893B"/>
<rect x="194" y="196" width="23" height="26" fill="#E8B84B"/>
<rect x="217" y="196" width="21" height="26" fill="#54DB98"/>
<rect x="238" y="196" width="3" height="26" fill="#565656"/>
<text x="247" y="214" fill="#E8E8E8" font-size="12" font-weight="500">59 (9 H/C)</text>
<text x="176" y="256" fill="#E8E8E8" text-anchor="end">DoS</text>
<rect x="185" y="238" width="2" height="26" fill="#F5893B"/>
<rect x="187" y="238" width="2" height="26" fill="#E8B84B"/>
<rect x="189" y="238" width="4" height="26" fill="#54DB98"/>
<text x="199" y="256" fill="#E8E8E8" font-size="12" font-weight="500">8 (2 H/C)</text>
<text x="176" y="298" fill="#E8E8E8" text-anchor="end">SSRF</text>
<rect x="185" y="280" width="2" height="26" fill="#F5893B"/>
<rect x="187" y="280" width="3" height="26" fill="#E8B84B"/>
<text x="196" y="298" fill="#E8E8E8" font-size="12" font-weight="500">5 (2 H/C)</text>
</g><g font-size="11">
<rect x="185" y="378" width="10" height="10" rx="2" fill="#F0503C"/><text x="199" y="387" fill="#8A8A8A">Critical 4</text>
<rect x="262" y="378" width="10" height="10" rx="2" fill="#F5893B"/><text x="276" y="387" fill="#8A8A8A">High 90</text>
<rect x="336" y="378" width="10" height="10" rx="2" fill="#E8B84B"/><text x="350" y="387" fill="#8A8A8A">Medium 398</text>
<rect x="430" y="378" width="10" height="10" rx="2" fill="#54DB98"/><text x="444" y="387" fill="#8A8A8A">Low 385</text>
<rect x="514" y="378" width="10" height="10" rx="2" fill="#565656"/><text x="528" y="387" fill="#8A8A8A">Info/None 113</text>
</g></svg>